<svg xmlns="http://www.w3.org/2000/svg" viewBox="0 0 1280 720">
  <rect width="1280" height="720" fill="#0F172A"/>
  <rect x="0" y="0" width="1280" height="6" fill="#FC4C02"/>
  <text x="80" y="70" font-family="Arial" font-size="36" fill="#FFFFFF" font-weight="bold">项目简介</text>
  <line x1="80" y1="90" x2="300" y2="90" stroke="#FC4C02" stroke-width="3"/>

  <!-- Hero text -->
  <text x="640" y="160" text-anchor="middle" font-family="Arial" font-size="26" fill="#38BDF8">一站式健身记录 Android 应用</text>
  <text x="640" y="200" text-anchor="middle" font-family="Arial" font-size="18" fill="#9CA3AF">GPS 运动追踪 × 力量训练 × 本地音乐 × 社区社交 × AI 训练计划</text>

  <!-- Stat cards row -->
  <rect x="60" y="250" width="270" height="110" rx="12" fill="#1E293B"/>
  <text x="195" y="295" text-anchor="middle" font-family="Arial" font-size="40" fill="#FC4C02" font-weight="bold">54</text>
  <text x="195" y="335" text-anchor="middle" font-family="Arial" font-size="16" fill="#9CA3AF">Java 文件</text>

  <rect x="345" y="250" width="270" height="110" rx="12" fill="#1E293B"/>
  <text x="480" y="295" text-anchor="middle" font-family="Arial" font-size="40" fill="#38BDF8" font-weight="bold">11.3K</text>
  <text x="480" y="335" text-anchor="middle" font-family="Arial" font-size="16" fill="#9CA3AF">代码行数</text>

  <rect x="630" y="250" width="270" height="110" rx="12" fill="#1E293B"/>
  <text x="765" y="295" text-anchor="middle" font-family="Arial" font-size="40" fill="#22C55E" font-weight="bold">73</text>
  <text x="765" y="335" text-anchor="middle" font-family="Arial" font-size="16" fill="#9CA3AF">Git Commits</text>

  <rect x="915" y="250" width="305" height="110" rx="12" fill="#1E293B"/>
  <text x="1067" y="295" text-anchor="middle" font-family="Arial" font-size="40" fill="#F59E0B" font-weight="bold">20+</text>
  <text x="1067" y="335" text-anchor="middle" font-family="Arial" font-size="16" fill="#9CA3AF">Bug 修复</text>

  <!-- Description -->
  <rect x="60" y="390" width="1160" height="140" rx="12" fill="#1E293B"/>
  <text x="100" y="430" font-family="Arial" font-size="20" fill="#FFFFFF" font-weight="bold">核心差异化</text>
  <text x="100" y="465" font-family="Arial" font-size="17" fill="#9CA3AF">BPM 步频匹配（加速度传感器 → 自动切歌）· DeepSeek AI 训练计划生成</text>
  <text x="100" y="495" font-family="Arial" font-size="17" fill="#9CA3AF">Firebase 社区社交（关注/挑战/活动流）· 5 轮全维度代码审计</text>

  <!-- Tech highlights -->
  <rect x="60" y="550" width="370" height="60" rx="8" fill="#334155"/>
  <text x="245" y="587" text-anchor="middle" font-family="Arial" font-size="17" fill="#FFFFFF">🟢 MVVM + Room v5 + Firebase</text>

  <rect x="445" y="550" width="370" height="60" rx="8" fill="#334155"/>
  <text x="630" y="587" text-anchor="middle" font-family="Arial" font-size="17" fill="#FFFFFF">📱 minSdk 26 · Android 8.0+</text>

  <rect x="830" y="550" width="390" height="60" rx="8" fill="#334155"/>
  <text x="1025" y="587" text-anchor="middle" font-family="Arial" font-size="17" fill="#FFFFFF">🤖 Vibe Coding · AI 驱动开发</text>
</svg>