<svg xmlns="http://www.w3.org/2000/svg" viewBox="0 0 1280 720">
  <rect width="1280" height="720" fill="#0F172A"/>
  <rect x="0" y="0" width="1280" height="6" fill="#FC4C02"/>
  <text x="80" y="60" font-family="Arial" font-size="36" fill="#FFFFFF" font-weight="bold">7 大功能模块总览</text>
  <line x1="80" y1="80" x2="380" y2="80" stroke="#FC4C02" stroke-width="3"/>

  <!-- Summary bar -->
  <rect x="60" y="110" width="1160" height="50" rx="10" fill="#1E293B"/>
  <text x="640" y="141" text-anchor="middle" font-family="Arial" font-size="18" fill="#22C55E">综合完成度: 85% | 功能总数: 58 项 | 已完成: 45 项</text>

  <!-- Module cards - Row 1 -->
  <rect x="60" y="185" width="370" height="110" rx="12" fill="#1E293B"/>
  <text x="90" y="220" font-family="Arial" font-size="22" fill="#FFFFFF" font-weight="bold">🎵 音乐播放</text>
  <rect x="300" y="205" width="110" height="25" rx="12" fill="#22C55E"/>
  <text x="355" y="223" text-anchor="middle" font-family="Arial" font-size="14" fill="#FFFFFF" font-weight="bold">93%</text>
  <text x="90" y="265" font-family="Arial" font-size="15" fill="#9CA3AF">MP3扫描 · 播放模式 · EQ均衡器 · BPM步频匹配 · 歌单管理 · Gapless</text>

  <rect x="455" y="185" width="370" height="110" rx="12" fill="#1E293B"/>
  <text x="485" y="220" font-family="Arial" font-size="22" fill="#FFFFFF" font-weight="bold">🏋️ 力量训练</text>
  <rect x="695" y="205" width="110" height="25" rx="12" fill="#F59E0B"/>
  <text x="750" y="223" text-anchor="middle" font-family="Arial" font-size="14" fill="#FFFFFF" font-weight="bold">85%</text>
  <text x="485" y="265" font-family="Arial" font-size="15" fill="#9CA3AF">50+动作库 · ViewPager2训练 · %1RM · AI计划 · 模板</text>

  <rect x="850" y="185" width="370" height="110" rx="12" fill="#1E293B"/>
  <text x="880" y="220" font-family="Arial" font-size="22" fill="#FFFFFF" font-weight="bold">🗺️ 运动追踪</text>
  <rect x="1090" y="205" width="110" height="25" rx="12" fill="#22C55E"/>
  <text x="1145" y="223" text-anchor="middle" font-family="Arial" font-size="14" fill="#FFFFFF" font-weight="bold">92%</text>
  <text x="880" y="265" font-family="Arial" font-size="15" fill="#9CA3AF">GPS追踪 · 配速路线 · 语音播报 · 自动暂停 · 路线回放</text>

  <!-- Row 2 -->
  <rect x="60" y="320" width="370" height="110" rx="12" fill="#1E293B"/>
  <text x="90" y="355" font-family="Arial" font-size="22" fill="#FFFFFF" font-weight="bold">📊 数据统计</text>
  <rect x="300" y="340" width="110" height="25" rx="12" fill="#F59E0B"/>
  <text x="355" y="358" text-anchor="middle" font-family="Arial" font-size="14" fill="#FFFFFF" font-weight="bold">80%</text>
  <text x="90" y="400" font-family="Arial" font-size="15" fill="#9CA3AF">日历热力图 · 折线图 · 过滤芯片 · 趋势箭头 · PR纪录墙</text>

  <rect x="455" y="320" width="370" height="110" rx="12" fill="#1E293B"/>
  <text x="485" y="355" font-family="Arial" font-size="22" fill="#FFFFFF" font-weight="bold">👤 个人中心</text>
  <rect x="695" y="340" width="110" height="25" rx="12" fill="#22C55E"/>
  <text x="750" y="358" text-anchor="middle" font-family="Arial" font-size="14" fill="#FFFFFF" font-weight="bold">88%</text>
  <text x="485" y="400" font-family="Arial" font-size="15" fill="#9CA3AF">头像 · 体重趋势 · 围度 · CSV导出 · 成就(9枚) · 主题</text>

  <rect x="850" y="320" width="370" height="110" rx="12" fill="#1E293B"/>
  <text x="880" y="355" font-family="Arial" font-size="22" fill="#FFFFFF" font-weight="bold">🏘️ 社区社交</text>
  <rect x="1090" y="340" width="110" height="25" rx="12" fill="#F59E0B"/>
  <text x="1145" y="358" text-anchor="middle" font-family="Arial" font-size="14" fill="#FFFFFF" font-weight="bold">85%</text>
  <text x="880" y="400" font-family="Arial" font-size="15" fill="#9CA3AF">帖子瀑布流 · 发布动态 · 点赞评论 · 关注 · 挑战排行 · 举报</text>

  <!-- System row -->
  <rect x="60" y="455" width="1160" height="70" rx="12" fill="#1E293B"/>
  <text x="100" y="482" font-family="Arial" font-size="20" fill="#FFFFFF" font-weight="bold">⚙️ 系统级功能</text>
  <rect x="300" y="467" width="110" height="25" rx="12" fill="#F59E0B"/>
  <text x="355" y="485" text-anchor="middle" font-family="Arial" font-size="14" fill="#FFFFFF" font-weight="bold">75%</text>
  <text x="100" y="510" font-family="Arial" font-size="15" fill="#9CA3AF">引导页 · Widget · 通知权限 · 深色/浅色主题 · Release+ProGuard · DB v5迁移 · minSdk 34→26</text>

  <!-- Progress bar -->
  <rect x="60" y="560" width="1160" height="40" rx="20" fill="#334155"/>
  <rect x="60" y="560" width="986" height="40" rx="20" fill="#FC4C02"/>
  <text x="640" y="586" text-anchor="middle" font-family="Arial" font-size="20" fill="#FFFFFF" font-weight="bold">总体完成度: 85%</text>
</svg>