<svg xmlns="http://www.w3.org/2000/svg" viewBox="0 0 1280 720">
  <rect width="1280" height="720" fill="#0F172A"/>
  <rect x="0" y="0" width="1280" height="6" fill="#FC4C02"/>
  <text x="80" y="60" font-family="Arial" font-size="36" fill="#FFFFFF" font-weight="bold">5 轮全维度代码审计</text>
  <line x1="80" y1="80" x2="380" y2="80" stroke="#FC4C02" stroke-width="3"/>

  <!-- Round cards -->
  <rect x="60" y="120" width="560" height="110" rx="12" fill="#1E293B"/>
  <text x="90" y="155" font-family="Arial" font-size="20" fill="#FC4C02" font-weight="bold">第1轮 · 空安全与异常处理</text>
  <text x="90" y="185" font-family="Arial" font-size="15" fill="#9CA3AF">aMap null 守卫 · POST_NOTIFICATIONS 运行时权限 · requireActivity() 崩溃 → safePost()</text>
  <text x="90" y="210" font-family="Arial" font-size="14" fill="#22C55E">发现: 1 个 | 修复: 1 个</text>

  <rect x="660" y="120" width="560" height="110" rx="12" fill="#1E293B"/>
  <text x="690" y="155" font-family="Arial" font-size="20" fill="#FC4C02" font-weight="bold">第2轮 · 资源管理与生命周期</text>
  <text x="690" y="185" font-family="Arial" font-size="15" fill="#9CA3AF">BroadcastReceiver 未注销 · ExecutorService 未关闭 · MediaPlayer 异常泄漏</text>
  <text x="690" y="210" font-family="Arial" font-size="14" fill="#22C55E">发现: 3 个 | 修复: 3 个</text>

  <rect x="60" y="255" width="560" height="110" rx="12" fill="#1E293B"/>
  <text x="90" y="290" font-family="Arial" font-size="20" fill="#FC4C02" font-weight="bold">第3轮 · 并发与线程安全</text>
  <text x="90" y="320" font-family="Arial" font-size="15" fill="#9CA3AF">Room 主线程访问 · ArrayList 竞争 · LinkedHashSet 竞争 · LiveData setValue → postValue</text>
  <text x="90" y="345" font-family="Arial" font-size="14" fill="#22C55E">发现: 4 个 | 修复: 4 个</text>

  <rect x="660" y="255" width="560" height="110" rx="12" fill="#1E293B"/>
  <text x="690" y="290" font-family="Arial" font-size="20" fill="#FC4C02" font-weight="bold">第4轮 · 边界条件与数据校验</text>
  <text x="690" y="320" font-family="Arial" font-size="15" fill="#9CA3AF">除零保护 · parseDouble try-catch · 发帖空标题拦截 · errorStream NPE</text>
  <text x="690" y="345" font-family="Arial" font-size="14" fill="#22C55E">发现: 2 个 | 修复: 2 个</text>

  <rect x="60" y="390" width="560" height="110" rx="12" fill="#1E293B"/>
  <text x="90" y="425" font-family="Arial" font-size="20" fill="#FC4C02" font-weight="bold">第5轮 · 依赖可靠性</text>
  <text x="90" y="455" font-family="Arial" font-size="15" fill="#9CA3AF">UserManager volatile 单例 · ProGuard 内部类 Keep · DB 迁移链验证</text>
  <text x="90" y="480" font-family="Arial" font-size="14" fill="#22C55E">发现: 3 个 | 修复: 3 个</text>

  <!-- Summary -->
  <rect x="60" y="530" width="1160" height="130" rx="14" fill="#1E293B"/>
  <text x="100" y="570" font-family="Arial" font-size="22" fill="#FFFFFF" font-weight="bold">审计成果</text>
  <text x="100" y="610" font-family="Arial" font-size="17" fill="#9CA3AF">5 轮审计 · 扫描 54 Java 文件 + 23 XML 布局 · 发现 13 个 Bug · 全部修复 · 编译 0 错误 · Lint 0 警告</text>
  <text x="100" y="645" font-family="Arial" font-size="15" fill="#22C55E">额外完成: printStackTrace → Log.e (7处) · ViewBinding 分析 (ViewHolder 已足够) · ContentDescription 覆盖 23 元素</text>
</svg>